<svg width="320" height="560" viewBox="0 0 320 560" xmlns="http://www.w3.org/2000/svg">
<rect x="1" y="1" width="318" height="558" fill="#ffffff" stroke="#e5e7eb"/>
<rect x="16" y="18" width="140" height="14" fill="#111827"/>
<rect x="220" y="16" width="84" height="20" rx="10" fill="#f3f4f6" stroke="#d1d5db"/>
<text x="239" y="30" font-size="9" fill="#374151" font-family="Arial">Step 3/3</text>

<rect x="16" y="50" width="288" height="78" rx="10" fill="#fff" stroke="#e5e7eb"/> <rect x="28" y="64" width="80" height="8" fill="#6b7280"/> <rect x="28" y="80" width="168" height="30" rx="8" fill="#fff" stroke="#d1d5db"/> <rect x="16" y="140" width="288" height="78" rx="10" fill="#fff" stroke="#e5e7eb"/> <rect x="28" y="154" width="90" height="8" fill="#6b7280"/> <rect x="28" y="170" width="168" height="30" rx="8" fill="#fff" stroke="#d1d5db"/> <rect x="16" y="232" width="288" height="210" rx="10" fill="#f9fafb" stroke="#e5e7eb"/> <rect x="28" y="248" width="72" height="10" fill="#111827"/> <rect x="28" y="268" width="220" height="7" fill="#9ca3af"/> <rect x="28" y="284" width="220" height="7" fill="#9ca3af"/> <rect x="28" y="300" width="220" height="7" fill="#9ca3af"/> <rect x="28" y="316" width="220" height="7" fill="#9ca3af"/> <rect x="16" y="472" width="90" height="34" rx="8" fill="#fff" stroke="#d1d5db"/> <text x="47" y="494" font-size="11" fill="#111827" font-family="Arial">Back</text> <rect x="170" y="472" width="134" height="34" rx="8" fill="#111827"/> <text x="199" y="494" font-size="11" fill="#fff" font-family="Arial">Deploy</text> </svg>